HIERARCHY
ROOT SpineBase
{
  OFFSET 0.000000 0.000000 0.000000
  CHANNELS 6 Xposition Yposition Zposition Zrotation Xrotation Yrotation
  JOINT SpineMid
  {
    OFFSET 0.000000 30.051833 0.000000
    CHANNELS 3 Zrotation Xrotation Yrotation
    JOINT SpineShoulder
    {
      OFFSET 0.005613 22.363082 -0.782071
      CHANNELS 3 Zrotation Xrotation Yrotation
      JOINT Neck
      {
        OFFSET 0.022382 7.428489 -0.585164
        CHANNELS 3 Zrotation Xrotation Yrotation
        JOINT Head
        {
          OFFSET -5.178662 13.251364 -0.736338
          CHANNELS 3 Zrotation Xrotation Yrotation
          End Site
          {
            OFFSET 0 0 0
          }
        }
      }
      JOINT ShoulderLeft
      {
        OFFSET -15.514794 -5.414677 6.082491
        CHANNELS 3 Zrotation Xrotation Yrotation
        JOINT ElbowLeft
        {
          OFFSET -0.866938 -27.333428 1.157191
          CHANNELS 3 Zrotation Xrotation Yrotation
          JOINT WristLeft
          {
            OFFSET 3.355129 -19.023980 -7.199615
            CHANNELS 3 Zrotation Xrotation Yrotation
            JOINT HandLeft
            {
              OFFSET -2.511455 -7.209778 -1.287926
              CHANNELS 3 Zrotation Xrotation Yrotation
              JOINT HandTipLeft
              {
                OFFSET -2.352816 -6.771761 -1.336431
                CHANNELS 3 Zrotation Xrotation Yrotation
                End Site
                {
                  OFFSET 0 0 0
                }
              }
              JOINT ThumbLeft
              {
                OFFSET -3.717861 2.377684 -1.169369
                CHANNELS 3 Zrotation Xrotation Yrotation
                End Site
                {
                  OFFSET 0 0 0
                }
              }
            }
          }
        }
      }
      JOINT ShoulderRight
      {
        OFFSET 14.202316 -1.936157 -8.567878
        CHANNELS 3 Zrotation Xrotation Yrotation
        JOINT ElbowRight
        {
          OFFSET 6.874665 -25.396080 -1.657141
          CHANNELS 3 Zrotation Xrotation Yrotation
          JOINT WristRight
          {
            OFFSET -1.083553 -20.688205 -5.610665
            CHANNELS 3 Zrotation Xrotation Yrotation
            JOINT HandRight
            {
              OFFSET -0.861550 -4.775419 -0.229185
              CHANNELS 3 Zrotation Xrotation Yrotation
              JOINT HandTipRight
              {
                OFFSET -0.823530 -6.004364 -1.173264
                CHANNELS 3 Zrotation Xrotation Yrotation
                End Site
                {
                  OFFSET 0 0 0
                }
              }
              JOINT ThumbRight
              {
                OFFSET 3.552519 0.070652 -0.493267
                CHANNELS 3 Zrotation Xrotation Yrotation
                End Site
                {
                  OFFSET 0 0 0
                }
              }
            }
          }
        }
      }
    }
  }
  JOINT HipLeft
  {
    OFFSET -6.026374 0.527964 -0.746826
    CHANNELS 3 Zrotation Xrotation Yrotation
    JOINT KneeLeft
    {
      OFFSET -2.616488 -25.834254 0.791318
      CHANNELS 3 Zrotation Xrotation Yrotation
      JOINT AnkleLeft
      {
        OFFSET 14.977320 -33.511267 5.521131
        CHANNELS 3 Zrotation Xrotation Yrotation
        JOINT FootLeft
        {
          OFFSET 0.054753 -7.955537 -4.568103
          CHANNELS 3 Zrotation Xrotation Yrotation
          End Site
          {
            OFFSET 0 0 0
          }
        }
      }
    }
  }
  JOINT HipRight
  {
    OFFSET 6.648492 1.580945 -5.923369
    CHANNELS 3 Zrotation Xrotation Yrotation
    JOINT KneeRight
    {
      OFFSET 9.404879 -27.333108 1.480325
      CHANNELS 3 Zrotation Xrotation Yrotation
      JOINT AnkleRight
      {
        OFFSET 4.955440 -31.111698 3.978807
        CHANNELS 3 Zrotation Xrotation Yrotation
        JOINT FootRight
        {
          OFFSET -4.047228 -3.286842 -12.582400
          CHANNELS 3 Zrotation Xrotation Yrotation
          End Site
          {
            OFFSET 0 0 0
          }
        }
      }
    }
  }
}
MOTION
Frames: 16
Frame Time: 0.033333
-31.836846 68.015665 335.422373 -0.000000 0.000000 22.215598 -0.000000 0.000000 -22.215598 -0.000000 0.000000 0.000000 -0.000000 0.000000 0.000000 0.000000 0.000000 0.000000 -0.000000 0.000000 0.000000 -0.000000 0.000000 0.000000 -0.000000 0.000000 0.000000 -0.000000 0.000000 0.000000 0.000000 0.000000 0.000000 0.000000 0.000000 0.000000 -0.000000 0.000000 0.000000 -0.000000 0.000000 0.000000 -0.000000 0.000000 0.000000 -0.000000 0.000000 0.000000 0.000000 0.000000 0.000000 0.000000 0.000000 0.000000 -0.000000 0.000000 -22.215598 -0.000000 0.000000 0.000000 -0.000000 0.000000 0.000000 0.000000 0.000000 0.000000 -0.000000 0.000000 -22.215598 -0.000000 0.000000 0.000000 -0.000000 0.000000 0.000000 0.000000 0.000000 0.000000
-31.877105 68.007744 335.431603 0.002264 0.017729 22.073909 -0.008761 -0.015578 -22.073911 -0.000000 0.000000 0.000000 -0.000000 0.000000 0.000000 0.000000 0.000000 0.000000 -0.000000 0.000000 0.000000 -1.704863 -0.555231 0.541478 4.318922 -0.474797 -0.684069 2.524144 0.416331 -0.744950 0.000000 0.000000 0.000000 0.000000 0.000000 0.000000 -0.000000 0.000000 0.000000 -0.000000 0.000000 0.000000 -2.774176 0.951024 -0.015314 3.227947 -3.491396 0.341090 0.000000 0.000000 0.000000 0.000000 0.000000 0.000000 1.040424 -0.307169 -22.050361 -1.081903 -0.123652 -0.021763 2.448779 0.962122 -1.413162 0.000000 0.000000 0.000000 -0.008761 -0.015578 -22.073911 -0.000000 0.000000 0.000000 1.901845 -6.626732 1.316480 0.000000 0.000000 0.000000
-31.914047 67.996367 335.435913 0.010838 0.036121 21.935998 -0.023547 -0.029457 -21.936007 -0.000000 0.000000 0.000000 -0.000000 0.000000 0.000000 0.000000 0.000000 0.000000 -0.000000 0.000000 0.000000 -3.006151 -0.988125 0.945172 7.815459 -1.094612 -1.176812 4.585048 0.688216 -1.413725 0.000000 0.000000 0.000000 0.000000 0.000000 0.000000 -0.000000 0.000000 0.000000 -0.000000 0.000000 0.000000 -5.125586 1.694487 0.016132 5.932778 -6.084846 0.642617 0.000000 0.000000 0.000000 0.000000 0.000000 0.000000 1.888563 -0.537542 -21.890935 -3.319380 -0.425703 -0.355277 5.646362 1.940255 -2.210567 0.000000 0.000000 0.000000 0.814610 0.073992 -21.755926 -1.590684 -0.792091 -0.362493 4.729970 -12.345061 2.867828 0.000000 0.000000 0.000000
-31.947673 67.981536 335.435304 0.025722 0.055173 21.801911 -0.044374 -0.041673 -21.801939 -0.000000 0.000000 0.000000 -0.000000 0.000000 0.000000 0.000000 0.000000 0.000000 -0.000000 0.000000 0.000000 -4.002780 -1.323439 1.248907 10.485546 -1.764776 -1.487352 6.179278 0.824571 -1.960509 0.000000 0.000000 0.000000 0.000000 0.000000 0.000000 -0.000000 0.000000 0.000000 -0.000000 0.000000 0.000000 -7.008531 2.210911 0.072391 8.063994 -7.808459 0.865654 0.000000 0.000000 0.000000 0.000000 0.000000 0.000000 2.550204 -0.694827 -21.740069 -4.473884 -0.637735 -0.499593 7.363028 2.666681 -2.856855 0.000000 0.000000 0.000000 1.121247 0.110210 -21.550298 -2.190253 -1.105872 -0.509240 6.723436 -16.884583 4.113413 0.000000 0.000000 0.000000
-31.977982 67.963249 335.429777 0.046916 0.074882 21.671691 -0.071253 -0.052263 -21.671755 -0.000000 0.000000 0.000000 -0.000000 0.000000 0.000000 0.000000 0.000000 0.000000 0.478505 0.672914 -0.003896 -5.240549 -2.249148 1.419293 12.308799 -2.412283 -1.631485 7.358111 0.832006 -2.357283 0.000000 0.000000 0.000000 0.000000 0.000000 0.000000 -0.000000 0.000000 0.000000 -0.000000 0.000000 0.000000 -8.389020 2.487538 0.135012 9.581600 -8.685775 0.979972 0.000000 0.000000 0.000000 0.000000 0.000000 0.000000 3.029776 -0.782042 -21.599736 -5.295644 -0.851112 -0.618540 8.350851 3.263022 -3.185449 0.000000 0.000000 0.000000 1.360234 0.144833 -21.360944 -2.660498 -1.366783 -0.630490 7.960160 -19.319536 4.786137 0.000000 0.000000 0.000000
-32.004975 67.941507 335.419329 0.074415 0.095244 21.545380 -0.104193 -0.061261 -21.545498 -0.000000 0.000000 0.000000 -0.000000 0.000000 0.000000 0.000000 0.000000 0.000000 0.579801 0.769939 -0.003771 -5.904529 -2.532333 1.569422 13.263100 -2.982805 -1.628096 8.195644 0.711210 -2.590495 0.000000 0.000000 0.000000 0.000000 0.000000 0.000000 -0.000000 0.000000 0.000000 0.430096 0.707537 -0.156126 -9.672859 1.792621 0.225972 10.457317 -8.730068 0.966009 0.000000 0.000000 0.000000 0.000000 0.000000 0.000000 3.330247 -0.801464 -21.471238 -5.787005 -1.066908 -0.710035 8.616308 3.741932 -3.190609 0.000000 0.000000 0.000000 1.531215 0.177133 -21.187943 -3.001989 -1.575968 -0.724818 8.171667 -19.283448 4.644072 0.000000 0.000000 0.000000
-32.031978 67.922158 335.403552 0.098905 0.124518 21.414277 -0.137540 -0.079810 -21.414481 -0.000000 0.000000 0.000000 -0.000000 0.000000 0.000000 0.000000 0.000000 0.000000 0.692577 0.840000 -0.002400 -6.609873 -2.724912 1.742611 11.771928 -4.399449 -0.879225 8.982756 0.144945 -2.610846 0.000000 0.000000 0.000000 0.000000 0.000000 0.000000 -0.000000 0.000000 0.000000 0.501891 0.819273 -0.182301 -9.402750 0.966545 0.285386 10.082840 -6.121121 0.488528 0.000000 0.000000 0.000000 0.000000 0.000000 0.000000 3.459417 -0.694823 -21.355542 -5.852109 -1.453248 -0.803166 7.446042 4.166316 -2.454404 0.000000 0.000000 0.000000 1.756437 0.215742 -20.996323 -3.358300 -1.831572 -0.833758 6.710530 -14.755499 3.000339 0.000000 0.000000 0.000000
-32.051428 67.899316 335.375487 0.145016 0.152938 21.297334 -0.190661 -0.089822 -21.297677 -0.000000 0.000000 0.000000 -0.000000 0.000000 0.000000 0.000000 0.000000 0.000000 0.778192 0.852999 0.000098 -6.979973 -2.781146 1.828601 9.444253 -4.760683 -0.408454 9.807948 -0.219784 -2.648358 0.000000 0.000000 0.000000 0.000000 0.000000 0.000000 -0.000000 0.000000 0.000000 0.568019 0.895293 -0.204997 -9.338804 1.184253 0.257875 9.190822 -5.909710 0.595892 0.000000 0.000000 0.000000 0.000000 0.000000 0.000000 3.294425 -0.513203 -21.263310 -5.530912 -1.682111 -0.809328 6.362285 4.556552 -1.884628 0.000000 0.000000 0.000000 1.797981 0.235698 -20.855432 -3.490925 -1.959197 -0.881723 4.685552 -8.196442 1.010719 0.000000 0.000000 0.000000
-32.068621 67.864303 335.347576 0.198720 0.172840 21.178494 -0.247741 -0.089373 -21.178986 -0.000000 0.000000 0.000000 -0.000000 0.000000 0.000000 0.000000 0.000000 0.000000 0.869665 0.854095 0.003249 -6.973052 -2.630939 1.823195 6.333277 -3.992547 -0.220619 9.756384 -0.693843 -2.265678 0.000000 0.000000 0.000000 0.000000 0.000000 0.000000 -0.000000 0.000000 0.000000 0.603199 0.924737 -0.216478 -8.707590 1.195871 0.226692 8.556181 -3.883484 0.326892 0.000000 0.000000 0.000000 0.000000 0.000000 0.000000 3.173244 -0.405367 -21.158282 -5.433219 -1.802946 -0.826369 5.659231 4.478835 -1.436653 0.000000 0.000000 0.000000 1.663511 0.241172 -20.749734 -3.332452 -1.921893 -0.851536 2.524057 -0.821217 -0.847134 0.000000 0.000000 0.000000
-32.078530 67.815091 335.325542 0.256493 0.177372 21.093822 -0.303142 -0.073175 -21.094413 -0.000000 0.000000 0.000000 -0.000000 0.000000 0.000000 0.000000 0.000000 0.000000 0.959514 0.817446 0.007855 -6.919342 -2.763447 1.732034 6.201801 -3.603285 -0.215907 9.525334 -1.182781 -1.966714 0.000000 0.000000 0.000000 0.000000 0.000000 0.000000 -0.000000 0.000000 0.000000 0.633585 0.909634 -0.224086 -8.119078 -0.063257 0.350134 7.483563 -0.894951 -0.141394 0.000000 0.000000 0.000000 0.000000 0.000000 0.000000 2.391304 0.025024 -21.124935 -4.048516 -2.031110 -0.728725 3.892574 4.073475 -0.739461 0.000000 0.000000 0.000000 1.324428 0.245661 -20.718338 -2.783242 -1.727960 -0.733195 1.408406 1.810555 -1.009206 0.000000 0.000000 0.000000
-32.096035 67.749805 335.304600 0.299414 0.168667 20.993217 -0.339966 -0.050202 -20.993807 -0.000000 0.000000 0.000000 -0.000000 0.000000 0.000000 0.000000 0.000000 0.000000 1.044473 0.738595 0.014069 -6.165006 -3.368150 1.284037 6.639270 -1.736630 -0.424318 9.163390 -1.516729 -1.622312 0.000000 0.000000 0.000000 0.000000 0.000000 0.000000 -0.000000 0.000000 0.000000 0.945260 0.539062 -0.288798 -6.808940 -0.553953 0.500040 6.679168 -1.687599 -0.197088 0.000000 0.000000 0.000000 0.000000 0.000000 0.000000 1.960862 0.100347 -21.028465 -3.233415 -1.926306 -0.631609 2.077796 3.465547 0.037021 0.000000 0.000000 0.000000 1.104691 0.265647 -20.651178 -2.410389 -1.639254 -0.662181 1.065451 2.301487 -1.109563 0.000000 0.000000 0.000000
-32.126050 67.674283 335.277932 0.340318 0.164521 20.873748 -0.376602 -0.032462 -20.874343 -0.000000 0.000000 0.000000 -0.648384 -0.498245 -0.234025 0.000000 0.000000 0.000000 1.090794 0.640895 0.019764 -6.208423 -3.180842 1.307194 9.912976 -1.813158 -1.075335 6.976762 -2.096745 -0.837100 0.000000 0.000000 0.000000 0.000000 0.000000 0.000000 -0.000000 0.000000 0.000000 1.211960 0.233021 -0.343366 -6.284002 0.909569 0.397988 5.154254 -4.672653 0.491734 0.000000 0.000000 0.000000 0.000000 0.000000 0.000000 2.548898 -0.502316 -20.832835 -4.044329 -1.486993 -0.650191 1.522968 2.693730 0.345354 0.000000 0.000000 0.000000 0.932391 0.250043 -20.565652 -2.130315 -1.552336 -0.598933 1.046133 2.247999 -1.615264 0.000000 0.000000 0.000000
-32.216426 67.576247 335.261942 0.277925 0.127998 20.722840 -0.305236 -0.021373 -20.723207 -0.000000 0.000000 0.000000 -0.729127 -0.440479 -0.215950 0.000000 0.000000 0.000000 1.079787 0.480402 0.025964 -7.936261 -2.783336 1.995942 15.531329 -0.566207 -3.259467 4.692124 -2.529418 0.005927 0.000000 0.000000 0.000000 0.000000 0.000000 0.000000 -0.000000 0.000000 0.000000 1.268682 0.434073 -0.371455 -7.011850 2.053828 0.262012 5.762126 -5.936340 0.780069 0.000000 0.000000 0.000000 0.000000 0.000000 0.000000 2.280342 0.289199 -20.780765 -2.955095 -2.419946 -0.642430 2.607829 -2.581938 -0.491589 0.000000 0.000000 0.000000 1.116728 0.219050 -20.408789 -2.179571 -1.575773 -0.598821 1.111334 1.784147 -1.576485 0.000000 0.000000 0.000000
-32.179252 67.513023 335.223499 0.382633 0.152346 20.431578 -0.411743 -0.009187 -20.432120 -0.000000 0.000000 0.000000 -0.819224 -0.465160 -0.231228 0.000000 0.000000 0.000000 1.219589 -0.018177 0.052422 -8.729027 -1.095852 2.564622 19.567073 -0.643467 -4.698839 2.884568 -3.268780 0.821661 0.000000 0.000000 0.000000 0.000000 0.000000 0.000000 -0.000000 0.000000 0.000000 1.266678 0.567829 -0.379265 -8.745626 8.057985 -0.344197 8.515866 -12.958210 2.409204 0.000000 0.000000 0.000000 0.000000 0.000000 0.000000 3.042615 -0.352880 -20.407818 -4.596632 -1.876525 -0.720108 3.205756 -2.307027 -0.494771 0.000000 0.000000 0.000000 0.903903 0.258702 -20.129791 -2.115136 -1.621804 -0.602679 1.551266 -0.678435 0.000283 0.000000 0.000000 0.000000
-32.163924 67.433164 335.188891 0.447547 0.201155 20.195814 -0.489475 -0.034277 -20.196746 -0.000000 0.000000 0.000000 -0.639214 -1.115525 -0.478487 0.000000 0.000000 0.000000 1.319682 -0.373692 0.072045 -9.547632 1.635431 3.450454 26.596254 -0.247578 -7.324639 2.691526 -7.294157 3.413852 0.000000 0.000000 0.000000 0.000000 0.000000 0.000000 -0.000000 0.000000 0.000000 -0.353224 2.521443 -0.028341 -11.616198 8.649186 -0.737545 13.599854 -14.231801 3.141387 0.000000 0.000000 0.000000 0.000000 0.000000 0.000000 5.006938 -1.999617 -19.924291 -8.365220 -0.617270 -0.878804 3.238373 2.740587 0.245653 0.000000 0.000000 0.000000 0.724397 0.251292 -19.907071 -2.154150 -1.678729 -0.622171 2.988167 -5.175550 1.049315 0.000000 0.000000 0.000000
-31.994168 67.272128 335.191387 0.683741 0.204905 20.271358 -0.712382 0.044688 -20.272303 -0.000000 0.000000 0.000000 0.029328 -2.543653 -0.990602 0.000000 0.000000 0.000000 0.989830 1.394034 -0.014364 -10.030325 2.898696 4.294377 31.653232 -1.530507 -8.610100 4.493056 -10.799352 5.983416 0.000000 0.000000 0.000000 0.000000 0.000000 0.000000 -0.000000 0.000000 0.000000 -3.685783 5.701009 0.871426 -15.218180 8.157849 -1.627956 18.766768 -13.763069 3.853428 0.000000 0.000000 0.000000 0.000000 0.000000 0.000000 7.097373 -3.985596 -19.622249 -13.114869 1.256582 -0.897915 1.961831 10.608588 2.244239 0.000000 0.000000 0.000000 0.606224 0.468194 -19.926248 -2.617020 -2.041077 -0.783971 5.541523 -11.604934 2.415423 0.000000 0.000000 0.000000
